<?xml version="1.0" encoding="iso-8859-1"?>
<!-- Generator: Adobe Illustrator 19.0.0, SVG Export Plug-In . SVG Version: 6.00 Build 0)  -->
<svg version="1.1" id="Capa_1" xmlns="http://www.w3.org/2000/svg" xmlns:xlink="http://www.w3.org/1999/xlink" x="0px" y="0px"
	 viewBox="0 0 405.304 405.304" style="enable-background:new 0 0 405.304 405.304;" xml:space="preserve">
<path style="fill:#FFFFFF;" d="M187.374,361.497l-56.8-81.6c-0.8-1.2-2.4-1.2-3.2-0.8c-33.6,23.6-80,15.6-103.6-18.4
	s-15.6-80,18.4-103.6c11.2-8,24.4-12.4,38-13.2c1.2,0,2.4-1.2,2.4-2.4c0-0.4-0.4-1.2-0.8-1.6c-1.2-1.2-2.4-2.8-3.6-4
	s-2.4-2.8-3.2-4.4c-23.6-33.6-15.6-80,18.4-104s80-15.6,104,18.4c1.2,1.6,2,2.8,3.2,4.8c1.2,1.6,2,3.2,2.8,4.8
	c0.4,1.2,2,1.6,3.2,1.2c0.4-0.4,0.8-0.8,1.2-1.2c16.4-37.6,60.4-55.2,98-38.4s55.2,60.4,38.4,98c-5.6,12.8-14.4,23.6-25.6,31.2l0,0
	c-1.2,0.8-1.2,2.4-0.8,3.2l56.4,81.2l-3.6,3.6c-25.6,26-53.6,49.6-83.6,70.8c-30,20.8-61.6,39.2-94.8,54.4L187.374,361.497z
	 M128.574,267.097c4.8,0,9.2,2.4,12,6l51.2,73.2c30.8-14.4,60.4-31.6,88.4-51.2s54-41.6,78.4-65.6l-51.2-73.2
	c-4.4-6.4-2.8-15.6,3.6-20c28.4-20,35.2-58.8,15.2-87.2s-58.8-35.2-87.2-15.2c-9.6,6.8-16.8,15.6-21.6,26.4
	c-3.2,7.2-11.6,10.8-18.8,7.6c-3.2-1.2-5.6-3.6-7.2-6.8c-0.8-1.2-1.2-2.8-2-4s-1.6-2.8-2.4-4c-20.4-28-59.6-34-87.2-13.6
	c-27.2,19.6-34,57.6-15.2,85.6c0.8,1.2,1.6,2.4,2.8,3.6c0.8,1.2,2,2.4,2.8,3.2c5.6,5.6,5.2,14.8-0.4,20.4c-2.4,2.4-5.6,4-9.2,4
	c-34.4,2-60.8,32-58.4,66.4s32,60.8,66.4,58.4c11.6-0.8,22.4-4.4,32-11.2C122.974,267.897,125.774,267.097,128.574,267.097z"/>
<path style="fill:#E5E5E5;" d="M226.174,394.697c-2,0-4,0-6-0.4c-6.8-1.2-13.2-4.8-17.2-10.8l-12.8-18.4l6.4-3.2
	c32.4-15.2,63.6-32.8,92.8-53.2c29.2-20.4,56.8-43.6,82-69.2l5.2-5.2l12.8,18.4c4,5.6,5.6,12.8,4.4,19.6c-2,8.4-6,16-12,22.4
	c-18.4,20.4-38.8,38.4-61.2,54c-23.6,16.4-48.8,30.4-75.6,41.6C238.974,393.097,232.574,394.697,226.174,394.697z"/>
<path style="fill:#493C33;" d="M376.174,244.297c-25.6,25.6-53.2,48.8-82.8,69.6c-29.6,20.8-61.2,38.8-94,54l8.8,12.4
	c3.2,4.4,8,7.6,13.2,8.4c7.2,0.8,14.8-0.4,21.2-3.2c26-11.2,51.2-24.8,74.4-41.2c22-15.6,42.4-33.2,60.4-53.2
	c5.2-5.2,8.8-12,10.4-19.2c1.2-5.2,0-10.8-3.2-15.2L376.174,244.297z M189.774,353.897c32.8-15.2,64.4-33.2,94-53.6
	c29.6-20.8,57.2-44,82.4-70l-54-77.6c-2.8-3.6-1.6-9.2,2-11.6l0,0c31.2-21.6,38.8-64.4,17.2-95.2c-21.6-31.2-64.4-38.8-95.2-17.2
	c-10.4,7.2-18.8,17.2-23.6,28.8l0,0c-2,4.4-6.8,6-11.2,4.4c-1.6-0.8-3.2-2-4-4c-0.8-1.6-1.6-2.8-2.4-4.4c-0.8-1.6-2-2.8-2.8-4.4
	c-22.4-30.4-65.2-37.2-95.6-14.4c-29.6,21.6-36.8,62.8-16.4,93.2c0.8,1.2,2,2.8,3.2,4s2,2.4,3.2,3.6c3.2,3.2,3.2,8.8,0,12
	c-1.6,1.6-3.2,2.4-5.6,2.4c-37.6,2.4-66.4,34.8-64,72.8s34.8,66.4,72.8,64c12.8-0.8,24.8-5.2,35.2-12.4c4-2.8,9.2-1.6,11.6,2
	L189.774,353.897z M35.774,148.297c6.4-4.4,13.2-8,20.8-10.8c2.8-0.8,5.2-1.6,8-2.4c-25.2-40-13.2-92.4,26.8-117.6
	c37.2-23.6,86-14.8,112.8,20c1.6-2.4,3.2-4.4,4.8-6.4c30-36.4,83.6-41.6,120-11.6s41.6,83.6,11.6,120c-3.2,3.6-6.4,7.2-10,10.4
	l53.2,76l0.4,0.8l14.4,20c5.6,8,8,18,6,27.6c-2.4,10.4-7.2,20-14.8,27.6c-18.8,20.8-40,39.6-63.2,55.6
	c-24.4,16.8-50.4,31.2-77.6,42.8c-9.6,4.4-20.4,6-30.8,4.4c-9.6-1.6-18.4-7.2-24-15.2l-14.4-20.4l-0.4-0.8l-53.2-75.6
	c-41.2,22.4-93.2,7.2-115.6-34C-10.226,220.697,0.574,173.497,35.774,148.297z"/>
<g>
</g>
<g>
</g>
<g>
</g>
<g>
</g>
<g>
</g>
<g>
</g>
<g>
</g>
<g>
</g>
<g>
</g>
<g>
</g>
<g>
</g>
<g>
</g>
<g>
</g>
<g>
</g>
<g>
</g>
</svg>
