<svg width="960.3" height="405.304" xmlns="http://www.w3.org/2000/svg">

 <g>
  <title>background</title>
  <rect fill="none" id="canvas_background" height="407.304" width="962.3" y="-1" x="-1"/>
 </g>
 <g>
  <title>Layer 1</title>
  <path id="svg_1" fill="#FFFFFF" d="m187.374,361.497l-56.8,-81.6c-0.8,-1.2 -2.4,-1.2 -3.2,-0.8c-33.6,23.6 -80,15.6 -103.6,-18.4s-15.6,-80 18.4,-103.6c11.2,-8 24.4,-12.4 38,-13.2c1.2,0 2.4,-1.2 2.4,-2.4c0,-0.4 -0.4,-1.2 -0.8,-1.6c-1.2,-1.2 -2.4,-2.8 -3.6,-4s-2.4,-2.8 -3.2,-4.4c-23.6,-33.6 -15.6,-80 18.4,-104s80,-15.6 104,18.4c1.2,1.6 2,2.8 3.2,4.8c1.2,1.6 2,3.2 2.8,4.8c0.4,1.2 2,1.6 3.2,1.2c0.4,-0.4 0.8,-0.8 1.2,-1.2c16.4,-37.6 60.4,-55.2 98,-38.4s55.2,60.4 38.4,98c-5.6,12.8 -14.4,23.6 -25.6,31.2l0,0c-1.2,0.8 -1.2,2.4 -0.8,3.2l56.4,81.2l-3.6,3.6c-25.6,26 -53.6,49.6 -83.6,70.8c-30,20.8 -61.6,39.2 -94.8,54.4l-4.8,2zm-58.8,-94.4c4.8,0 9.2,2.4 12,6l51.2,73.2c30.8,-14.4 60.4,-31.6 88.4,-51.2s54,-41.6 78.4,-65.6l-51.2,-73.2c-4.4,-6.4 -2.8,-15.6 3.6,-20c28.4,-20 35.2,-58.8 15.2,-87.2s-58.8,-35.2 -87.2,-15.2c-9.6,6.8 -16.8,15.6 -21.6,26.4c-3.2,7.2 -11.6,10.8 -18.8,7.6c-3.2,-1.2 -5.6,-3.6 -7.2,-6.8c-0.8,-1.2 -1.2,-2.8 -2,-4s-1.6,-2.8 -2.4,-4c-20.4,-28 -59.6,-34 -87.2,-13.6c-27.2,19.6 -34,57.6 -15.2,85.6c0.8,1.2 1.6,2.4 2.8,3.6c0.8,1.2 2,2.4 2.8,3.2c5.6,5.6 5.2,14.8 -0.4,20.4c-2.4,2.4 -5.6,4 -9.2,4c-34.4,2 -60.8,32 -58.4,66.4s32,60.8 66.4,58.4c11.6,-0.8 22.4,-4.4 32,-11.2c2.4,-2 5.2,-2.8 8,-2.8z"/>
  <path id="svg_2" fill="#E5E5E5" d="m226.174,394.697c-2,0 -4,0 -6,-0.4c-6.8,-1.2 -13.2,-4.8 -17.2,-10.8l-12.8,-18.4l6.4,-3.2c32.4,-15.2 63.6,-32.8 92.8,-53.2c29.2,-20.4 56.8,-43.6 82,-69.2l5.2,-5.2l12.8,18.4c4,5.6 5.6,12.8 4.4,19.6c-2,8.4 -6,16 -12,22.4c-18.4,20.4 -38.8,38.4 -61.2,54c-23.6,16.4 -48.8,30.4 -75.6,41.6c-6,2.8 -12.4,4.4 -18.8,4.4z"/>
  <path id="svg_3" fill="#493C33" d="m376.174,244.297c-25.6,25.6 -53.2,48.8 -82.8,69.6c-29.6,20.8 -61.2,38.8 -94,54l8.8,12.4c3.2,4.4 8,7.6 13.2,8.4c7.2,0.8 14.8,-0.4 21.2,-3.2c26,-11.2 51.2,-24.8 74.4,-41.2c22,-15.6 42.4,-33.2 60.4,-53.2c5.2,-5.2 8.8,-12 10.4,-19.2c1.2,-5.2 0,-10.8 -3.2,-15.2l-8.4,-12.4zm-186.4,109.6c32.8,-15.2 64.4,-33.2 94,-53.6c29.6,-20.8 57.2,-44 82.4,-70l-54,-77.6c-2.8,-3.6 -1.6,-9.2 2,-11.6l0,0c31.2,-21.6 38.8,-64.4 17.2,-95.2c-21.6,-31.2 -64.4,-38.8 -95.2,-17.2c-10.4,7.2 -18.8,17.2 -23.6,28.8l0,0c-2,4.4 -6.8,6 -11.2,4.4c-1.6,-0.8 -3.2,-2 -4,-4c-0.8,-1.6 -1.6,-2.8 -2.4,-4.4c-0.8,-1.6 -2,-2.8 -2.8,-4.4c-22.4,-30.4 -65.2,-37.2 -95.6,-14.4c-29.6,21.6 -36.8,62.8 -16.4,93.2c0.8,1.2 2,2.8 3.2,4s2,2.4 3.2,3.6c3.2,3.2 3.2,8.8 0,12c-1.6,1.6 -3.2,2.4 -5.6,2.4c-37.6,2.4 -66.4,34.8 -64,72.8s34.8,66.4 72.8,64c12.8,-0.8 24.8,-5.2 35.2,-12.4c4,-2.8 9.2,-1.6 11.6,2l53.2,77.6zm-154,-205.6c6.4,-4.4 13.2,-8 20.8,-10.8c2.8,-0.8 5.2,-1.6 8,-2.4c-25.2,-40 -13.2,-92.4 26.8,-117.6c37.2,-23.6 86,-14.8 112.8,20c1.6,-2.4 3.2,-4.4 4.8,-6.4c30,-36.4 83.6,-41.6 120,-11.6s41.6,83.6 11.6,120c-3.2,3.6 -6.4,7.2 -10,10.4l53.2,76l0.4,0.8l14.4,20c5.6,8 8,18 6,27.6c-2.4,10.4 -7.2,20 -14.8,27.6c-18.8,20.8 -40,39.6 -63.2,55.6c-24.4,16.8 -50.4,31.2 -77.6,42.8c-9.6,4.4 -20.4,6 -30.8,4.4c-9.6,-1.6 -18.4,-7.2 -24,-15.2l-14.4,-20.4l-0.4,-0.8l-53.2,-75.6c-41.2,22.4 -93.2,7.2 -115.6,-34c-20.8,-38 -10,-85.2 25.2,-110.4z"/>
  <g id="svg_4"/>
  <g id="svg_5"/>
  <g id="svg_6"/>
  <g id="svg_7"/>
  <g id="svg_8"/>
  <g id="svg_9"/>
  <g id="svg_10"/>
  <g id="svg_11"/>
  <g id="svg_12"/>
  <g id="svg_13"/>
  <g id="svg_14"/>
  <g id="svg_15"/>
  <g id="svg_16"/>
  <g id="svg_17"/>
  <g id="svg_18"/>
  <text font-weight="bold" xml:space="preserve" text-anchor="start" font-family="'Simonetta', serif" font-size="111" id="svg_19" y="247.6506" x="419.14997" stroke-width="0" fill="#493C33">RecetteDay</text>
 </g>
</svg>